<svg width="468" height="468" viewBox="0 0 468 468" fill="none" xmlns="http://www.w3.org/2000/svg">
<path d="M369.234 17.6253L234 152.859L98.7658 17.6253C76.3576 -4.78289 40.0336 -4.78289 17.6253 17.6253C-4.78287 40.0335 -4.78287 76.3576 17.6253 98.7658L152.86 234L17.6253 369.234C-4.78287 391.642 -4.78287 427.966 17.6253 450.375C40.0336 472.783 76.3576 472.783 98.7658 450.375L234 315.141L369.234 450.375C391.642 472.783 427.966 472.783 450.375 450.375C472.783 427.966 472.783 391.642 450.375 369.234L315.141 234L450.375 98.7658C472.783 76.3576 472.783 40.0335 450.375 17.6253C427.966 -4.78289 391.642 -4.78289 369.234 17.6253Z" fill="#012E4A"/>
</svg>
