<svg width="612" height="612" viewBox="0 0 612 612" fill="none" xmlns="http://www.w3.org/2000/svg">
<path d="M554.625 248.625H363.375V57.375C363.375 25.685 337.69 0 306 0C274.31 0 248.625 25.685 248.625 57.375V248.625H57.375C25.685 248.625 0 274.31 0 306C0 337.69 25.685 363.375 57.375 363.375H248.625V554.625C248.625 586.315 274.31 612 306 612C337.69 612 363.375 586.315 363.375 554.625V363.375H554.625C586.315 363.375 612 337.69 612 306C612 274.31 586.315 248.625 554.625 248.625Z" fill="#1423CF"/>
</svg>
